<svg width="24" height="17" viewBox="0 0 24 17" fill="none" xmlns="http://www.w3.org/2000/svg">
    <path d="M11.9986 11.5333C11.6672 11.5333 11.3493 11.4019 11.1146 11.1679L1.42964 1.48194C1.36407 1.41636 1.31803 1.33384 1.29666 1.2436C1.27529 1.15336 1.27944 1.05896 1.30864 0.970939C1.41664 0.641939 1.72464 0.611938 1.99964 0.611938H21.9996C22.2736 0.611938 22.5796 0.641939 22.6896 0.970939C22.7188 1.05896 22.723 1.15336 22.7016 1.2436C22.6803 1.33384 22.6342 1.41636 22.5686 1.48194L12.8826 11.1679C12.648 11.4019 12.3301 11.5333 11.9986 11.5333Z" fill="currentColor"/>
    <path d="M23.782 2.43282C23.8177 2.42587 23.8546 2.42974 23.888 2.44393C23.9212 2.45764 23.9497 2.48094 23.9696 2.51086C23.9895 2.54078 24.0001 2.57597 24 2.61193V14.6119C24 15.1424 23.7893 15.6511 23.4142 16.0262C23.0391 16.4012 22.5304 16.6119 22 16.6119H2C1.46957 16.6119 0.960863 16.4012 0.58579 16.0262C0.210718 15.6511 1.92339e-06 15.1424 1.92339e-06 14.6119V2.61193C-0.000162181 2.57623 0.0101781 2.54126 0.0297373 2.51139C0.0492966 2.48152 0.0772106 2.45806 0.110004 2.44393C0.143377 2.42946 0.180351 2.42544 0.216054 2.43241C0.251756 2.43937 0.284512 2.45698 0.310004 2.48293L10.053 12.2279C10.5687 12.7433 11.2679 13.0328 11.997 13.0328C12.7261 13.0328 13.4253 12.7433 13.941 12.2279L23.688 2.48293C23.7136 2.45722 23.7464 2.43977 23.782 2.43282Z" fill="currentColor"/>
</svg>
