<svg width="24" height="25" viewBox="0 0 24 25" fill="none" xmlns="http://www.w3.org/2000/svg">
    <path d="M17 9.47253V7.47253C17 4.67253 14.8 2.47253 12 2.47253C9.2 2.47253 7 4.67253 7 7.47253V9.47253C5.3 9.47253 4 10.7725 4 12.4725V19.4725C4 21.1725 5.3 22.4725 7 22.4725H17C18.7 22.4725 20 21.1725 20 19.4725V12.4725C20 10.7725 18.7 9.47253 17 9.47253ZM9 7.47253C9 5.77253 10.3 4.47253 12 4.47253C13.7 4.47253 15 5.77253 15 7.47253V9.47253H9V7.47253ZM13 17.4725C13 18.0725 12.6 18.4725 12 18.4725C11.4 18.4725 11 18.0725 11 17.4725V14.4725C11 13.8725 11.4 13.4725 12 13.4725C12.6 13.4725 13 13.8725 13 14.4725V17.4725Z" fill="currentColor"/>
</svg>
