<svg width="146" height="32" viewBox="0 0 146 32" fill="none" xmlns="http://www.w3.org/2000/svg">
    <g clip-path="url(#clip0_1_1039)">
        <path fill-rule="evenodd" clip-rule="evenodd" d="M140.265 12.1508C140.106 12.5079 140.027 12.8939 140.027 13.3089C140.027 13.7342 140.106 14.1268 140.265 14.4866C140.424 14.8464 140.639 15.1589 140.912 15.4241C141.185 15.6893 141.503 15.8954 141.865 16.0425C142.228 16.1896 142.614 16.2631 143.021 16.2631C143.429 16.2631 143.813 16.1896 144.173 16.0425C144.533 15.8954 144.848 15.6893 145.118 15.4241C145.388 15.1589 145.603 14.8464 145.762 14.4866C145.921 14.1268 146 13.7342 146 13.3089C146 12.8939 145.921 12.5079 145.762 12.1508C145.603 11.7937 145.388 11.4838 145.118 11.2212C144.848 10.9586 144.533 10.7524 144.173 10.6027C143.813 10.453 143.429 10.3782 143.021 10.3782C142.614 10.3782 142.228 10.453 141.865 10.6027C141.503 10.7524 141.185 10.9586 140.912 11.2212C140.639 11.4838 140.424 11.7937 140.265 12.1508ZM140.566 13.3089C140.566 13.6712 140.629 14.0061 140.754 14.3133C140.878 14.6206 141.05 14.887 141.27 15.1129C141.489 15.3387 141.749 15.516 142.048 15.6446C142.347 15.7734 142.672 15.8377 143.021 15.8377C143.365 15.8377 143.686 15.7734 143.983 15.6446C144.279 15.516 144.537 15.3387 144.757 15.1129C144.976 14.887 145.149 14.6206 145.273 14.3133C145.397 14.0061 145.459 13.6712 145.459 13.3089C145.459 12.957 145.397 12.6287 145.273 12.3241C145.149 12.0194 144.976 11.7556 144.757 11.5323C144.537 11.3091 144.279 11.1332 143.983 11.0046C143.686 10.8758 143.365 10.8115 143.021 10.8115C142.672 10.8115 142.347 10.8758 142.048 11.0046C141.749 11.1332 141.489 11.3091 141.27 11.5323C141.05 11.7556 140.878 12.0194 140.754 12.3241C140.629 12.6287 140.566 12.957 140.566 13.3089ZM143.204 11.5994H141.861V15.042H142.402V13.561H142.973L143.919 15.042H144.499L143.506 13.5215C143.766 13.4953 143.983 13.4099 144.157 13.2655C144.332 13.1211 144.419 12.8939 144.419 12.5841C144.419 12.2532 144.32 12.0063 144.121 11.8435C143.923 11.6807 143.617 11.5994 143.204 11.5994ZM142.965 13.1277H142.402V12.0326H143.116C143.207 12.0326 143.298 12.0392 143.39 12.0523C143.483 12.0654 143.565 12.0904 143.636 12.1271C143.708 12.1639 143.766 12.2164 143.812 12.2847C143.857 12.353 143.879 12.4449 143.879 12.5604C143.879 12.697 143.854 12.8034 143.803 12.8795C143.753 12.9557 143.686 13.0121 143.601 13.0489C143.516 13.0856 143.419 13.1079 143.311 13.1158C143.203 13.1237 143.087 13.1277 142.965 13.1277Z" fill="white"/>
        <path fill-rule="evenodd" clip-rule="evenodd" d="M29.5674 28.2486L28.4621 30.4625C30.1309 31.4598 32.1203 31.9971 34.253 31.9971C36.585 31.9971 38.4023 31.4364 39.5801 30.2684C40.6582 29.1956 41.2235 27.5891 41.2235 25.4237V15.2007H38.2537V17.1235C37.2482 15.932 35.8983 14.9329 33.713 14.9329C30.6944 14.9329 27.8224 17.172 27.8224 20.969V21.0175C27.8224 24.7912 30.6708 27.0303 33.713 27.0303C35.8493 27.0303 37.1992 26.0563 38.2791 24.669V25.6664C38.2791 28.2486 36.8314 29.6107 34.1805 29.6107C32.4139 29.6107 30.9408 29.1004 29.5674 28.2486ZM38.3045 20.969V21.0175C38.3045 23.0859 36.5614 24.5468 34.4994 24.5468C32.4611 24.5468 30.8176 23.111 30.8176 20.9924V20.9439C30.8176 18.827 32.4375 17.4145 34.4994 17.4145C36.5614 17.4145 38.3045 18.8504 38.3045 20.969Z" fill="white"/>
        <path d="M43.8744 10.2842H46.8441V28.0528H43.8744V10.2842Z" fill="white"/>
        <path fill-rule="evenodd" clip-rule="evenodd" d="M48.7828 21.6501V21.6987C48.7828 25.3501 51.7036 28.3457 55.6554 28.3439C59.6561 28.3439 62.6005 25.3016 62.6005 21.6501V21.6016C62.6005 17.925 59.6815 14.9312 55.7043 14.9312C51.729 14.9312 48.7828 17.9753 48.7828 21.6501ZM59.6307 21.6501V21.6987C59.6307 23.9143 58.1106 25.7886 55.7043 25.7886C53.3977 25.7886 51.7525 23.8892 51.7525 21.6501V21.6016C51.7525 19.3626 53.2745 17.5135 55.6554 17.5135C57.9873 17.5135 59.6307 19.3859 59.6307 21.6501Z" fill="white"/>
        <path fill-rule="evenodd" clip-rule="evenodd" d="M67.3623 28.0528V26.0563C68.2701 27.2495 69.62 28.3206 71.7562 28.3206C74.8473 28.3206 77.7935 25.9108 77.7935 21.6519V21.6034C77.7935 17.3427 74.8238 14.933 71.7562 14.933C69.6688 14.933 68.319 16.004 67.3623 17.3427V10.2842H64.3925V28.0528H67.3623ZM74.773 21.6016V21.6501C74.773 24.1821 73.1042 25.7652 71.0658 25.7635C69.0527 25.7635 67.2861 24.1335 67.2861 21.6501V21.6016C67.2861 19.1433 69.0527 17.4883 71.0658 17.4883C73.0789 17.4883 74.773 19.1182 74.773 21.6016Z" fill="white"/>
        <path fill-rule="evenodd" clip-rule="evenodd" d="M87.5346 26.4697V28.0529H90.4804V20.4336C90.4804 17.0032 88.6147 15.0067 84.7856 15.0067C82.6747 15.0067 81.2744 15.4452 79.8519 16.0778L80.6618 18.439C81.8398 17.952 82.9215 17.6357 84.3686 17.6357C86.4296 17.6357 87.558 18.6079 87.558 20.3851V20.6295C86.5522 20.3132 85.5471 20.094 83.9758 20.094C80.9574 20.094 78.723 21.4561 78.723 24.3043V24.3529C78.723 26.9334 80.8832 28.3206 83.3377 28.3206C85.3019 28.3206 86.6522 27.5174 87.5346 26.4697ZM84.6388 22.1623C85.7915 22.1623 86.8474 22.3798 87.6089 22.6726V23.404C87.6089 25.0123 86.1376 26.1067 84.1734 26.1067C82.7731 26.1067 81.6696 25.4238 81.6696 24.2073V24.157C81.6696 22.917 82.7747 22.1623 84.6388 22.1623Z" fill="white"/>
        <path d="M92.9576 10.2842H95.9276V28.0528H92.9576V10.2842Z" fill="white"/>
        <path fill-rule="evenodd" clip-rule="evenodd" d="M98.1362 21.8207V21.8693C98.1362 25.74 100.984 28.3456 104.267 28.3474C106.674 28.3474 108.171 27.3735 109.446 26.0095L108.613 25.2799C107.582 26.3743 106.257 27.2261 104.318 27.2261C101.865 27.2261 99.6308 25.4255 99.4098 22.3329H109.792C109.818 22.1388 109.818 22.0651 109.818 21.846C109.818 18.1693 107.585 15.3462 104.075 15.3462C100.689 15.3462 98.1362 18.2178 98.1362 21.8207ZM104.027 16.4424C106.899 16.4424 108.346 18.7533 108.518 21.2619H99.4114C99.6325 18.5108 101.548 16.4424 104.027 16.4424Z" fill="white"/>
        <path fill-rule="evenodd" clip-rule="evenodd" d="M111.535 21.846V21.8945C111.535 25.9359 114.604 28.3457 117.623 28.3457C120.102 28.3457 121.699 26.9099 122.778 25.2783V28.0528H123.981V10.2842H122.778V18.3167C121.747 16.7587 120.127 15.3463 117.623 15.3463C114.604 15.3463 111.535 17.8063 111.535 21.846ZM122.85 21.8208V21.8694C122.85 25.0339 120.347 27.201 117.746 27.201C115.119 27.201 112.838 25.1075 112.838 21.846V21.7975C112.838 18.4623 115.023 16.491 117.746 16.491C120.347 16.491 122.85 18.6312 122.85 21.8208Z" fill="white"/>
        <path fill-rule="evenodd" clip-rule="evenodd" d="M129.083 10.7711H127.587V12.401H129.083V10.7711ZM128.935 15.6392H127.734V28.0528H128.935V15.6392Z" fill="white"/>
        <path d="M133.354 24.863V16.7334H131.539V15.6373H133.354V11.6695H134.557V15.6373H138.952V16.7334H134.557V24.7409C134.557 26.5181 135.614 27.1524 137.062 27.1524C137.674 27.1524 138.19 27.0302 138.902 26.7139V27.8334C138.264 28.1245 137.651 28.2719 136.866 28.2719C134.925 28.2719 133.354 27.2242 133.354 24.863Z" fill="white"/>
        <path fill-rule="evenodd" clip-rule="evenodd" d="M9.04926 23.8712C10.0984 24.1533 11.1765 24.2953 12.2546 24.2953C17.7683 24.2953 22.626 20.6042 24.0665 15.3194C25.8295 8.85552 21.9628 2.17256 15.4472 0.424089C14.3981 0.141962 13.32 0 12.2419 0C6.7282 0 1.87043 3.69102 0.429947 8.97592C-0.423469 12.1063 0.00233298 15.3786 1.62944 18.1927C3.25655 21.0068 5.8929 23.023 9.04926 23.8712ZM2.40312 9.50608C3.60262 5.10345 7.64865 2.0288 12.24 2.0288C13.1388 2.0288 14.0375 2.1474 14.9109 2.38281C20.3376 3.84016 23.5592 9.4072 22.0915 14.791C20.8902 19.1918 16.8442 22.2665 12.2528 22.2665C11.3558 22.2665 10.4571 22.1461 9.58195 21.9125C6.95287 21.2062 4.75682 19.5261 3.40149 17.1828C2.04617 14.8395 1.69103 12.1135 2.40312 9.50608Z" fill="#FD9F12"/>
        <path d="M8.58899 18.624C6.72456 18.624 5.05758 18.1262 3.73488 17.2726C0.408187 15.127 -0.635482 11.1395 1.07679 7.11606L2.96119 7.90494C1.65298 10.9796 2.39406 13.9895 4.84922 15.5727C7.82078 17.4882 13.0953 17.0229 18.1723 11.657L19.6635 13.0462C15.8893 17.0354 11.9212 18.624 8.58899 18.624Z" fill="#FD9F12"/>
        <path d="M13.4396 24.2558L13.1859 22.2431C16.5579 21.8262 18.8373 19.6537 18.9949 16.7066C19.1816 13.1989 16.1593 8.91304 8.98408 7.24726L9.44975 5.27236C17.7755 7.20592 21.2689 12.4621 21.0351 16.8144C20.8268 20.7301 17.7737 23.7202 13.4396 24.2558Z" fill="#FD9F12"/>
        <path d="M8.04547 17.9178C5.55951 9.74864 8.30821 4.14385 12.135 2.21209C15.5903 0.46721 19.5404 1.59033 22.1985 5.07289L20.5677 6.29664C18.5384 3.6371 15.5939 2.74399 13.0627 4.01986C9.99326 5.56886 7.85885 10.2842 10.0041 17.3319L8.04547 17.9178Z" fill="#FD9F12"/>
    </g>
    <defs>
        <clipPath id="clip0_1_1039">
            <rect width="146" height="32" fill="white"/>
        </clipPath>
    </defs>
</svg>
